<svg height="200px" width="200px" version="1.1" id="Layer_1" xmlns="http://www.w3.org/2000/svg" xmlns:xlink="http://www.w3.org/1999/xlink" viewBox="0 0 504.4 504.4" xml:space="preserve" fill="#ffffff" stroke="#ffffff" transform="rotate(-45)"><g id="SVGRepo_bgCarrier" stroke-width="0"></g><g id="SVGRepo_tracerCarrier" stroke-linecap="round" stroke-linejoin="round"></g><g id="SVGRepo_iconCarrier"> <path style="fill:#ffffff;" d="M52.6,310.4l182.8,182.8c4.8,4.8,10.8,6.8,16.8,6.8c6,0,12.4-2.4,16.8-6.8l182.8-182.8 c9.2-9.2,9.2-24.4,0-33.6l-16.4-16.4c-9.2-9.2-24.4-9.2-33.6,0L288.2,373.6V25.2c0-13.2-10.4-22-23.6-22H241 c-13.2,0-24.8,8.8-24.8,22v349.6l-114-114.4c-9.2-9.2-24-9.2-33.2,0l-16.4,16.8C43.4,286.4,43.4,301.2,52.6,310.4z"></path> <path style="fill:#ffffff;" d="M268.2,69.2v352.4l0.8-0.8l141.6-141.6c4-4,10.8-4,14.8,0l7.6,7.6c4,4,4,10.4,0,14.4L259.4,474.8 c-2,2-4.8,3.2-7.6,2.8c-2.8,0-5.6-0.8-7.6-2.8L101.8,332.4l-20-20l-11.2-11.2c-4-4-4-10.4,0-14.4l7.6-7.6c4-4,10.4-4,14.4,0 l141.2,141.6l1.6,2V32c0-5.6,5.6-8.4,11.2-8.4h10.8c5.6,0,10,2.8,10,8.4v9.2v28H268.2z"></path> <path d="M252.2,504.4L252.2,504.4c-7.6,0-14.4-2.8-19.6-8L49.8,313.6l0,0c-10.8-10.8-10.8-28.4,0-39.2L66.2,258c5.2-5.2,12-8,19.6-8 c7.2,0,14.4,2.8,19.6,8l107.2,107.6V26c0-14.4,12.8-26,28.8-26H265c15.6,0,27.6,11.2,27.6,26v338.4L399,258 c10.8-10.8,28.4-10.8,39.2,0l16.4,16.4c10.8,10.8,10.8,28.4,0,39.2L271.8,496.4C266.6,501.2,259.8,504.4,252.2,504.4z M252.2,496.4 c5.6,0,10.4-2,14-5.6L449,308c7.6-7.6,7.6-20.4,0-28l-16.4-16.4c-7.6-7.6-20.4-7.6-28,0L291,376.8c-1.2,1.2-2.8,1.6-4.4,0.8 c-1.6-0.8-2.4-2-2.4-3.6V25.6c0-10.4-8.4-18-19.6-18H241c-10.4,0-20.8,6.8-20.8,18v349.6c0,1.6-0.8,3.2-2.4,3.6 c-1.6,0.8-3.2,0.4-4.4-0.8l-114-114.4c-3.6-3.6-8.8-5.6-13.6-5.6c-5.2,0-10,2-13.6,5.6L55.8,280c-7.6,7.6-7.6,20,0,28l182.8,182.8 C241.8,494,247,496.4,252.2,496.4L252.2,496.4z"></path> <path d="M252.6,481.6h-0.4c-3.6,0-7.2-1.6-10-4L68.6,304c-5.6-5.6-5.6-14.8,0-20.4l7.6-7.6c2.8-2.8,6.4-4,10-4l0,0 c3.6,0,7.2,1.6,10,4l136,136.4V32c0-7.2,6.4-12.4,15.2-12.4h10.8c8.4,0,14,4.8,14,12.4v11.6c0,2.4-1.6,4-4,4s-4-1.6-4-4V32 c0-1.2,0-4.4-6-4.4h-10.8c-2.4,0-7.2,0.8-7.2,4.4v390.8c0,1.6-1.2,3.2-2.8,3.6s-3.6,0-4.4-1.2l-1.2-1.6L90.6,282 c-1.2-1.2-2.8-2-4.4-2l0,0c-1.6,0-3.2,0.8-4.4,2l-7.6,7.6c-2.4,2.4-2.4,6.4,0,8.8L247.8,472c1.2,1.2,2.8,2,4.4,2c2,0,3.6-0.8,4.8-2 l173.6-173.6c1.2-1.2,2-2.8,2-4.4s-0.8-3.2-2-4.4L423,282c-2.4-2.4-6.4-2.4-8.8,0l-142,141.6l-0.4,0.4l-0.8,0.8 c-1.2,0.8-2.8,1.2-4.4,0.4c-1.2-0.8-2.4-2-2.4-3.6v-350c0-2.4,1.6-4,4-4s4,1.6,4,4V412l136-136c2.8-2.8,6.4-4,10-4l0,0 c4,0,7.6,1.6,10,4l7.6,7.6c5.6,5.6,5.6,14.8,0,20.4L262.2,477.6C259.8,480.4,256.2,481.6,252.6,481.6z"></path> </g></svg>