<svg height="200px" width="200px" version="1.1" id="Layer_1" xmlns="http://www.w3.org/2000/svg" xmlns:xlink="http://www.w3.org/1999/xlink" viewBox="0 0 496.8 496.8" xml:space="preserve" fill="#ffffff" stroke="#ffffff">
<g id="SVGRepo_bgCarrier" stroke-width="0"></g><g id="SVGRepo_tracerCarrier" stroke-linecap="round" stroke-linejoin="round"></g><g id="SVGRepo_iconCarrier"> <path style="fill:#ffffff;" d="M445.6,192L264.4,10.8C260,6.4,253.6,4,247.6,4s-12,2.4-16.8,6.8L49.6,192c-9.2,9.2-9.2,24,0,33.2 L66,241.6c9.2,9.2,24,9.2,33.2,0l112-112.4V466c0,12.8,10.8,26.4,23.6,26.4H258c12.8,0,25.2-13.6,25.2-26.4V128L396,241.6 c9.2,9.2,23.6,9.2,32.8,0l16.4-16.4C455.2,216,454.8,201.2,445.6,192z"></path> <path style="fill:#ffffff;" d="M396.4,170.4L255.6,29.6c-2-2-4.8-3.2-7.6-2.8c-2.8,0-5.2,0.8-7.6,2.8l-172,172c-4,4-4,10.4,0,14.4 l7.6,7.6c4,4,10.4,4,14.4,0L230.8,83.2l0.8-0.8V460c0,5.6,4.4,16.8,10,16.8h10.8c5.6,0,11.2-11.2,11.2-16.8V81.2l1.6,2l140,140.4 c4,4,10.4,4,14.4,0l7.6-7.6c4-4,4-10.4,0-14.4L416,190.4L396.4,170.4z"></path> <path d="M258.8,496.8h-23.2c-15.2,0-27.6-12.4-27.6-27.2V138.8L102.8,244.4c-10.8,10.8-28,10.8-38.8,0L47.6,228 c-10.8-10.8-10.8-28,0-38.8L228.8,8c5.2-5.2,12.4-8,19.6-8c7.2,0,14.4,2.8,19.6,8l181.2,181.2l0,0c10.8,10.8,10.8,28.4,0,38.8 l-16.4,16.4c-5.2,5.2-12,8-19.2,8s-14-2.8-19.2-8l-106-106.8v331.2C288,483.6,274.4,496.8,258.8,496.8z M212,125.2 c0.4,0,1.2,0,1.6,0.4c1.6,0.8,2.4,2,2.4,3.6v340.4c0,10.8,8.8,19.2,19.6,19.2h23.2c11.2,0,21.2-9.6,21.2-20V128 c0-1.6,0.8-3.2,2.4-3.6c1.6-0.8,3.2-0.4,4.4,0.8l112.8,113.6c3.6,3.6,8.4,5.6,13.6,5.6s10-2,13.6-5.6l16.4-16.4 c7.6-7.6,7.6-20,0-27.6L262,13.6C258.4,10,253.6,8,248,8s-10,2-14,5.6L52.8,194.8c-7.6,7.6-7.6,20,0,27.6l16.4,16.4 c7.6,7.6,20,7.6,27.6,0l112-112.4C210,125.6,210.8,125.2,212,125.2z"></path> <path d="M252.8,476.8H242c-8,0-14-5.6-14-13.2v-372L93.6,226c-5.6,5.6-14.4,5.6-20,0l-7.6-7.6c-2.8-2.8-4-6.4-4-10c0-4,1.6-7.2,4-10 l172-172c2.8-2.8,6.4-4,10.4-4c3.6,0,7.6,1.6,10,4l140.8,140.8c1.6,1.6,1.6,4,0,5.6s-4,1.6-5.6,0L252.8,32c-1.2-1.2-2.8-2-4.4-1.6 c-2,0-3.6,0.8-4.8,1.6l-172,172c-1.2,1.2-2,2.8-2,4.4s0.8,3.2,2,4.4l7.6,7.6c2.4,2.4,6.4,2.4,8.8,0L228.4,80l1.2-0.8 c1.2-1.2,2.8-1.2,4.4-0.8c1.6,0.8,2.4,2,2.4,3.6v381.6c0,4,3.2,5.2,6,5.2h10.8c3.6,0,7.2-2,7.2-5.2V81.2c0-1.6,1.2-3.2,2.8-4 c1.6-0.4,3.6,0,4.4,1.6l1.2,1.6l140,140c2.4,2.4,6.4,2.4,8.8,0l7.6-7.6c1.2-1.2,2-2.8,2-4.4s-0.8-3.2-2-4.4L414,192.8 c-1.6-1.6-1.6-4,0-5.6s4-1.6,5.6,0l11.2,11.2c2.8,2.8,4,6.4,4,10s-1.6,7.2-4,10l-7.6,7.6c-5.6,5.6-14.4,5.6-20,0L268.4,91.2v372.4 C268,471.6,260,476.8,252.8,476.8z"></path> </g></svg>